<svg width="16" height="16" viewBox="0 0 16 16" fill="none" xmlns="http://www.w3.org/2000/svg">
<path fill-rule="evenodd" clip-rule="evenodd" d="M8.00006 1.9334C4.64954 1.9334 1.9334 4.64954 1.9334 8.00006C1.9334 11.3506 4.64954 14.0667 8.00006 14.0667C11.3506 14.0667 14.0667 11.3506 14.0667 8.00006C14.0667 4.64954 11.3506 1.9334 8.00006 1.9334ZM0.733398 8.00006C0.733398 3.9868 3.9868 0.733398 8.00006 0.733398C12.0133 0.733398 15.2667 3.9868 15.2667 8.00006C15.2667 12.0133 12.0133 15.2667 8.00006 15.2667C3.9868 15.2667 0.733398 12.0133 0.733398 8.00006ZM8.00006 4.60007C7.59506 4.60007 7.26673 4.92839 7.26673 5.3334C7.26673 5.73841 7.59506 6.06673 8.00006 6.06673C8.40507 6.06673 8.7334 5.73841 8.7334 5.3334C8.7334 4.92839 8.40507 4.60007 8.00006 4.60007ZM6.06673 5.3334C6.06673 4.26565 6.93231 3.40007 8.00006 3.40007C9.06782 3.40007 9.9334 4.26565 9.9334 5.3334C9.9334 6.40115 9.06782 7.26673 8.00006 7.26673C6.93231 7.26673 6.06673 6.40115 6.06673 5.3334ZM7.11118 9.26673C6.46071 9.26673 5.9334 9.79404 5.9334 10.4445C5.9334 10.6041 6.06274 10.7334 6.22229 10.7334H9.77784C9.93739 10.7334 10.0667 10.6041 10.0667 10.4445C10.0667 9.79404 9.53942 9.26673 8.88895 9.26673H7.11118ZM4.7334 10.4445C4.7334 9.1313 5.79797 8.06673 7.11118 8.06673H8.88895C10.2022 8.06673 11.2667 9.1313 11.2667 10.4445C11.2667 11.2668 10.6001 11.9334 9.77784 11.9334H6.22229C5.4 11.9334 4.7334 11.2668 4.7334 10.4445Z" fill="#C6A001"/>
</svg>
